<svg viewBox="0 0 767 309.975" xmlns="http://www.w3.org/2000/svg">
   <g data-name="Warstwa 1" transform="translate(-41.695 -128.478)">
      <path d="M41.695 128.478h767v309.975h-767z" fill="#00608a" fill-rule="evenodd" />
      <clipPath id="prefix__a">
         <path transform="matrix(1 0 0 -1 0 566.93)" d="M0 566.93h850.39V0H0z" />
      </clipPath>
      <g clip-path="url(#prefix__a)">
         <path
            d="M223.308 222.525c5.865 0 10.649 4.784 10.649 10.649 0 5.867-4.784 10.65-10.65 10.65-5.864 0-10.648-4.783-10.648-10.65 0-5.865 4.784-10.65 10.649-10.65m7.639 31.453l-15.798 5.968v106.37l15.798-5.967zm145.249-57.135l-26.067 9.83v93.645c-.088 15.27-2.632 27.38-7.634 36.245-6.933 12.462-18.871 19.572-35.808 21.239l-8.074.352c-11.234-.526-21.24-4.74-30.016-12.728-9.215-8.337-13.866-19.568-13.866-33.522 0-13.168 4.739-23.61 14.13-31.51 9.302-7.897 20.975-11.847 34.843-11.847 8.775 0 16.5 1.49 23.257 4.387 2.545 1.053 5 2.283 7.197 3.862.7.44 1.404.878 2.017 1.404l7.022-10.618a3.821 3.821 0 01-.615-.527c-2.896-2.546-5.705-4.476-8.424-5.967-8.69-4.74-18.695-7.023-30.016-7.023-16.148 0-30.278 5.267-42.39 15.886-12.024 10.62-18.08 24.664-18.08 41.953-.088 17.112 6.495 31.066 19.572 41.95 13.077 10.795 29.05 16.235 48.006 16.235h.878a391.44 391.44 0 013.687-.262c4.124-.265 8.513-.967 13.164-2.194 9.918-2.46 18.694-6.67 26.329-12.815 13.867-11.06 20.8-26.151 20.976-45.2zm252.673 85.043c-2.897-4.122-6.496-7.985-10.71-11.495-13.076-10.884-29.048-16.326-48.006-16.326-14.217 0-26.328 2.896-36.245 8.602-4.915 2.808-9.743 6.67-14.395 11.41a97.82 97.82 0 00-9.566 11.407 41.693 41.693 0 00-4.212 6.936c-.88 1.667-2.633 5.265-5.354 10.88-6.495 13.253-11.058 22.117-13.427 26.593-3.95 7.11-7.374 12.025-10.093 14.656-9.567 8.952-20.536 13.43-33 13.43-11.672 0-22.116-4.125-31.331-12.553-8.16-7.284-12.638-16.846-13.692-28.52h50.99l5.618-9.041H398.75c.878-11.233 5.53-20.448 13.954-27.47 9.392-7.898 20.976-11.848 34.843-11.848 12.112 0 22.205 2.72 30.54 8.249 5.444 3.599 10.534 8.602 15.274 14.922l5.616-11.147c-7.373-9.391-14.307-15.972-20.976-19.483-8.69-4.74-18.694-7.023-30.015-7.023-16.06 0-30.191 5.267-42.302 15.886-7.548 6.583-12.638 14.48-15.535 23.607-1.754 5.706-2.631 11.763-2.631 18.346 0 6.316.877 12.109 2.63 17.552 3.074 9.388 8.69 17.466 17.028 24.398 12.988 10.795 29.049 16.235 48.007 16.235 14.129 0 26.242-2.81 36.247-8.601 4.826-2.72 8.95-5.968 12.286-9.48 3.335-3.597 6.32-7.018 8.952-10.267 1.756-2.194 4.038-6.055 6.845-11.407 1.404-2.81 2.985-6.056 4.739-9.655 10.006-21.591 18.08-35.195 24.135-40.987 9.567-9.038 20.625-13.515 33.087-13.515 11.586 0 22.029 4.214 31.333 12.55 9.216 8.425 13.867 19.659 13.867 33.612 0 13.166-4.74 23.7-14.131 31.508-9.302 7.9-20.975 11.848-34.841 11.848-12.112 0-22.205-2.806-30.455-8.248-6.056-3.95-11.672-9.654-16.674-16.94l-5.442 11.585c7.81 10.27 15.183 17.289 22.116 21.065 8.689 4.65 18.694 6.932 30.016 6.932 16.148 0 30.277-5.265 42.39-15.885a54.31 54.31 0 009.216-10.445c5.879-8.776 8.863-19.306 8.863-31.505 0-11.497-2.984-21.678-8.863-30.368"
            fill="#fff" fill-rule="evenodd" />
      </g>
   </g>
</svg>